<svg xmlns="http://www.w3.org/2000/svg" width="24" height="16"><g id="ph-24x16"><path fill="#1D439A" d="M0 0h24v8H0z"/><path fill="#CD2028" d="M0 8h24v8H0z"/><path fill="#FFF" d="M0 16V0l10.38 8z"/><path fill="#FBD015" d="m8.98 8.65-.29-.39-.45.15.27-.4-.28-.4.45.14.28-.4.01.49.46.15-.45.17zM1.23 14.66l-.42-.23-.35.33.08-.48-.41-.24.47-.07.1-.48.2.44.48-.05-.35.34zM1.38 2.08.9 2.03l-.2.45L.6 2l-.47-.06.41-.25-.1-.48.36.33.42-.24-.19.45z"/><g fill="#FBD015"><path d="m5.92 8.13.16-.17-.16-.15h-.01l-1.18.08c0-.03-.01-.05-.02-.08l1.05-.14-.11-.13h-.01l-.94.19c-.03-.16-.09-.3-.17-.44l.81-.55.01-.2h-.02l-.85.68c-.01-.01-.02-.04-.04-.05l.89-.8v-.22h-.22l-.78.91c-.02-.02-.04-.03-.06-.05l.64-.86H4.73l-.53.82c-.12-.09-.26-.15-.42-.18l.19-.96-.12-.13-.14 1.07c-.02 0-.05-.01-.07-.01l.08-1.21-.16-.15-.16.16.08 1.2c-.03 0-.05.01-.08.02l-.14-1.09-.11.14.18.95c-.16.04-.3.1-.43.18l-.53-.82-.15.01H2.2l.64.86c-.02.01-.04.02-.06.04L2 6.14h-.22v.22l.89.8c-.02.02-.03.04-.05.06l-.84-.66v.18l.8.55c-.09.13-.15.28-.18.44l-.94-.19-.11.12 1.03.14c0 .03-.01.05-.01.07L1.2 7.8l-.16.16.14.15.01.01 1.18-.08c0 .03.01.05.02.08l-1.06.14.13.12-.01.01.95-.19c.03.16.09.31.18.45l-.8.53.01.17.83-.65c.02.02.03.05.04.07l-.88.8v.22l.21.01H2l.77-.9c.02 0 .04.02.06.03l-.65.86.17-.01.01.01.54-.81c.13.09.27.15.43.18l-.19.96.14.14-.01-.01.13-1.08c.03 0 .05.01.08.02l-.08 1.2.16.16.15-.16.01-.01-.08-1.2c.03 0 .05-.01.08-.02l.14 1.07.13-.12-.2-.96c.16-.03.3-.09.43-.18l.54.82h.18l-.66-.87c.02-.01.04-.02.06-.04l.78.91h.22l.01-.22-.89-.8c.01-.02.02-.05.04-.07l.84.66-.01-.18-.8-.55c.09-.13.15-.27.18-.44l.96.2.11-.12.01-.01-1.07-.14c0-.02.01-.05.01-.07l1.19.08z"/><path d="M1.79 9.37v-.01h-.01zM3.14 5.84l.01-.01-.01-.01z"/></g></g></svg>